<svg width="648" height="200" viewBox="0 0 388 505" fill="none" xmlns="http://www.w3.org/2000/svg">
<path fill-rule="evenodd" clip-rule="evenodd" d="M3.651 0.00245C1.6345 0.00245 0 1.63695 0 3.65345C0 5.66945 1.6345 7.30445 3.651 7.30445C5.6675 7.30445 7.302 5.66945 7.302 3.65345C7.302 1.63695 5.6675 0.00245 3.651 0.00245Z" fill="indigo" fill-opacity="0.42"/>
<path fill-rule="evenodd" clip-rule="evenodd" d="M3.651 31.6856C1.6345 31.6856 0 33.3201 0 35.3366C0 37.3526 1.6345 38.9876 3.651 38.9876C5.6675 38.9876 7.302 37.3526 7.302 35.3366C7.302 33.3201 5.6675 31.6856 3.651 31.6856Z" fill="indigo" fill-opacity="0.42"/>
<path fill-rule="evenodd" clip-rule="evenodd" d="M3.651 63.3686C1.6345 63.3686 0 65.0031 0 67.0196C0 69.0361 1.6345 70.6706 3.651 70.6706C5.6675 70.6706 7.302 69.0361 7.302 67.0196C7.302 65.0031 5.6675 63.3686 3.651 63.3686Z" fill="indigo" fill-opacity="0.42"/>
<path fill-rule="evenodd" clip-rule="evenodd" d="M3.651 95.0518C1.6345 95.0518 0 96.6868 0 98.7028C0 100.719 1.6345 102.354 3.651 102.354C5.6675 102.354 7.302 100.719 7.302 98.7028C7.302 96.6868 5.6675 95.0518 3.651 95.0518Z" fill="indigo" fill-opacity="0.42"/>
<path fill-rule="evenodd" clip-rule="evenodd" d="M3.651 126.735C1.6345 126.735 0 128.37 0 130.386C0 132.402 1.6345 134.037 3.651 134.037C5.6675 134.037 7.302 132.402 7.302 130.386C7.302 128.37 5.6675 126.735 3.651 126.735Z" fill="indigo" fill-opacity="0.42"/>
<path fill-rule="evenodd" clip-rule="evenodd" d="M3.651 158.418C1.6345 158.418 0 160.053 0 162.069C0 164.086 1.6345 165.72 3.651 165.72C5.6675 165.72 7.302 164.086 7.302 162.069C7.302 160.053 5.6675 158.418 3.651 158.418Z" fill="indigo" fill-opacity="0.42"/>
<path fill-rule="evenodd" clip-rule="evenodd" d="M3.651 190.101C1.6345 190.101 0 191.736 0 193.752C0 195.769 1.6345 197.403 3.651 197.403C5.6675 197.403 7.302 195.769 7.302 193.752C7.302 191.736 5.6675 190.101 3.651 190.101Z" fill="indigo" fill-opacity="0.42"/>
<path fill-rule="evenodd" clip-rule="evenodd" d="M3.651 221.784C1.6345 221.784 0 223.419 0 225.435C0 227.452 1.6345 229.086 3.651 229.086C5.6675 229.086 7.302 227.452 7.302 225.435C7.302 223.419 5.6675 221.784 3.651 221.784Z" fill="indigo" fill-opacity="0.42"/>
<path fill-rule="evenodd" clip-rule="evenodd" d="M3.651 253.468C1.6345 253.468 0 255.103 0 257.119C0 259.135 1.6345 260.77 3.651 260.77C5.6675 260.77 7.302 259.135 7.302 257.119C7.302 255.103 5.6675 253.468 3.651 253.468Z" fill="indigo" fill-opacity="0.42"/>
<path fill-rule="evenodd" clip-rule="evenodd" d="M3.651 285.151C1.6345 285.151 0 286.786 0 288.802C0 290.818 1.6345 292.453 3.651 292.453C5.6675 292.453 7.302 290.818 7.302 288.802C7.302 286.786 5.6675 285.151 3.651 285.151Z" fill="indigo" fill-opacity="0.42"/>
<path fill-rule="evenodd" clip-rule="evenodd" d="M3.651 316.834C1.6345 316.834 0 318.469 0 320.485C0 322.501 1.6345 324.136 3.651 324.136C5.6675 324.136 7.302 322.501 7.302 320.485C7.302 318.469 5.6675 316.834 3.651 316.834Z" fill="indigo" fill-opacity="0.42"/>
<path fill-rule="evenodd" clip-rule="evenodd" d="M3.651 348.517C1.6345 348.517 0 350.152 0 352.168C0 354.184 1.6345 355.819 3.651 355.819C5.6675 355.819 7.302 354.184 7.302 352.168C7.302 350.152 5.6675 348.517 3.651 348.517Z" fill="indigo" fill-opacity="0.42"/>
<path fill-rule="evenodd" clip-rule="evenodd" d="M3.651 380.2C1.6345 380.2 0 381.835 0 383.851C0 385.868 1.6345 387.502 3.651 387.502C5.6675 387.502 7.302 385.868 7.302 383.851C7.302 381.835 5.6675 380.2 3.651 380.2Z" fill="indigo" fill-opacity="0.42"/>
<path fill-rule="evenodd" clip-rule="evenodd" d="M3.651 411.884C1.6345 411.884 0 413.519 0 415.535C0 417.551 1.6345 419.186 3.651 419.186C5.6675 419.186 7.302 417.551 7.302 415.535C7.302 413.519 5.6675 411.884 3.651 411.884Z" fill="indigo" fill-opacity="0.42"/>
<path fill-rule="evenodd" clip-rule="evenodd" d="M3.651 443.567C1.6345 443.567 0 445.202 0 447.218C0 449.234 1.6345 450.869 3.651 450.869C5.6675 450.869 7.302 449.234 7.302 447.218C7.302 445.202 5.6675 443.567 3.651 443.567Z" fill="indigo" fill-opacity="0.42"/>
<path fill-rule="evenodd" clip-rule="evenodd" d="M3.651 470.25C1.6345 470.25 0 471.885 0 473.901C0 475.917 1.6345 477.552 3.651 477.552C5.6675 477.552 7.302 475.917 7.302 473.901C7.302 471.885 5.6675 470.25 3.651 470.25Z" fill="indigo" fill-opacity="0.42"/>
<path fill-rule="evenodd" clip-rule="evenodd" d="M3.651 496.933C1.6345 496.933 0 498.568 0 500.584C0 502.6 1.6345 504.235 3.651 504.235C5.6675 504.235 7.302 502.6 7.302 500.584C7.302 498.568 5.6675 496.933 3.651 496.933Z" fill="indigo" fill-opacity="0.42"/>
<path fill-rule="evenodd" clip-rule="evenodd" d="M35.3346 0.00245C33.3181 0.00245 31.6836 1.63695 31.6836 3.65345C31.6836 5.66945 33.3181 7.30445 35.3346 7.30445C37.3511 7.30445 38.9856 5.66945 38.9856 3.65345C38.9856 1.63695 37.3511 0.00245 35.3346 0.00245Z" fill="indigo" fill-opacity="0.42"/>
<path fill-rule="evenodd" clip-rule="evenodd" d="M35.3346 31.6856C33.3181 31.6856 31.6836 33.3201 31.6836 35.3366C31.6836 37.3526 33.3181 38.9876 35.3346 38.9876C37.3511 38.9876 38.9856 37.3526 38.9856 35.3366C38.9856 33.3201 37.3511 31.6856 35.3346 31.6856Z" fill="indigo" fill-opacity="0.42"/>
<path fill-rule="evenodd" clip-rule="evenodd" d="M35.3346 63.3686C33.3181 63.3686 31.6836 65.0031 31.6836 67.0196C31.6836 69.0361 33.3181 70.6706 35.3346 70.6706C37.3511 70.6706 38.9856 69.0361 38.9856 67.0196C38.9856 65.0031 37.3511 63.3686 35.3346 63.3686Z" fill="indigo" fill-opacity="0.42"/>
<path fill-rule="evenodd" clip-rule="evenodd" d="M35.3346 95.0518C33.3181 95.0518 31.6836 96.6868 31.6836 98.7028C31.6836 100.719 33.3181 102.354 35.3346 102.354C37.3511 102.354 38.9856 100.719 38.9856 98.7028C38.9856 96.6868 37.3511 95.0518 35.3346 95.0518Z" fill="indigo" fill-opacity="0.42"/>
<path fill-rule="evenodd" clip-rule="evenodd" d="M35.3346 126.735C33.3181 126.735 31.6836 128.37 31.6836 130.386C31.6836 132.402 33.3181 134.037 35.3346 134.037C37.3511 134.037 38.9856 132.402 38.9856 130.386C38.9856 128.37 37.3511 126.735 35.3346 126.735Z" fill="indigo" fill-opacity="0.42"/>
<path fill-rule="evenodd" clip-rule="evenodd" d="M35.3346 158.418C33.3181 158.418 31.6836 160.053 31.6836 162.069C31.6836 164.086 33.3181 165.72 35.3346 165.72C37.3511 165.72 38.9856 164.086 38.9856 162.069C38.9856 160.053 37.3511 158.418 35.3346 158.418Z" fill="indigo" fill-opacity="0.42"/>
<path fill-rule="evenodd" clip-rule="evenodd" d="M35.3346 190.101C33.3181 190.101 31.6836 191.736 31.6836 193.752C31.6836 195.769 33.3181 197.403 35.3346 197.403C37.3511 197.403 38.9856 195.769 38.9856 193.752C38.9856 191.736 37.3511 190.101 35.3346 190.101Z" fill="indigo" fill-opacity="0.42"/>
<path fill-rule="evenodd" clip-rule="evenodd" d="M35.3346 221.784C33.3181 221.784 31.6836 223.419 31.6836 225.435C31.6836 227.452 33.3181 229.086 35.3346 229.086C37.3511 229.086 38.9856 227.452 38.9856 225.435C38.9856 223.419 37.3511 221.784 35.3346 221.784Z" fill="indigo" fill-opacity="0.42"/>
<path fill-rule="evenodd" clip-rule="evenodd" d="M35.3346 253.468C33.3181 253.468 31.6836 255.103 31.6836 257.119C31.6836 259.135 33.3181 260.77 35.3346 260.77C37.3511 260.77 38.9856 259.135 38.9856 257.119C38.9856 255.103 37.3511 253.468 35.3346 253.468Z" fill="indigo" fill-opacity="0.42"/>
<path fill-rule="evenodd" clip-rule="evenodd" d="M35.3346 285.151C33.3181 285.151 31.6836 286.786 31.6836 288.802C31.6836 290.818 33.3181 292.453 35.3346 292.453C37.3511 292.453 38.9856 290.818 38.9856 288.802C38.9856 286.786 37.3511 285.151 35.3346 285.151Z" fill="indigo" fill-opacity="0.42"/>
<path fill-rule="evenodd" clip-rule="evenodd" d="M35.3346 316.834C33.3181 316.834 31.6836 318.469 31.6836 320.485C31.6836 322.501 33.3181 324.136 35.3346 324.136C37.3511 324.136 38.9856 322.501 38.9856 320.485C38.9856 318.469 37.3511 316.834 35.3346 316.834Z" fill="indigo" fill-opacity="0.42"/>
<path fill-rule="evenodd" clip-rule="evenodd" d="M35.3346 348.517C33.3181 348.517 31.6836 350.152 31.6836 352.168C31.6836 354.184 33.3181 355.819 35.3346 355.819C37.3511 355.819 38.9856 354.184 38.9856 352.168C38.9856 350.152 37.3511 348.517 35.3346 348.517Z" fill="indigo" fill-opacity="0.42"/>
<path fill-rule="evenodd" clip-rule="evenodd" d="M35.3346 380.2C33.3181 380.2 31.6836 381.835 31.6836 383.851C31.6836 385.868 33.3181 387.502 35.3346 387.502C37.3511 387.502 38.9856 385.868 38.9856 383.851C38.9856 381.835 37.3511 380.2 35.3346 380.2Z" fill="indigo" fill-opacity="0.42"/>
<path fill-rule="evenodd" clip-rule="evenodd" d="M35.3346 411.884C33.3181 411.884 31.6836 413.519 31.6836 415.535C31.6836 417.551 33.3181 419.186 35.3346 419.186C37.3511 419.186 38.9856 417.551 38.9856 415.535C38.9856 413.519 37.3511 411.884 35.3346 411.884Z" fill="indigo" fill-opacity="0.42"/>
<path fill-rule="evenodd" clip-rule="evenodd" d="M35.3346 443.567C33.3181 443.567 31.6836 445.202 31.6836 447.218C31.6836 449.234 33.3181 450.869 35.3346 450.869C37.3511 450.869 38.9856 449.234 38.9856 447.218C38.9856 445.202 37.3511 443.567 35.3346 443.567Z" fill="indigo" fill-opacity="0.42"/>
<path fill-rule="evenodd" clip-rule="evenodd" d="M35.3346 470.25C33.3181 470.25 31.6836 471.885 31.6836 473.901C31.6836 475.917 33.3181 477.552 35.3346 477.552C37.3511 477.552 38.9856 475.917 38.9856 473.901C38.9856 471.885 37.3511 470.25 35.3346 470.25Z" fill="indigo" fill-opacity="0.42"/>
<path fill-rule="evenodd" clip-rule="evenodd" d="M35.3346 496.933C33.3181 496.933 31.6836 498.568 31.6836 500.584C31.6836 502.6 33.3181 504.235 35.3346 504.235C37.3511 504.235 38.9856 502.6 38.9856 500.584C38.9856 498.568 37.3511 496.933 35.3346 496.933Z" fill="indigo" fill-opacity="0.42"/>
<path fill-rule="evenodd" clip-rule="evenodd" d="M67.0182 0.00245C65.0017 0.00245 63.3672 1.63695 63.3672 3.65345C63.3672 5.66945 65.0017 7.30445 67.0182 7.30445C69.0347 7.30445 70.6692 5.66945 70.6692 3.65345C70.6692 1.63695 69.0347 0.00245 67.0182 0.00245Z" fill="indigo" fill-opacity="0.42"/>
<path fill-rule="evenodd" clip-rule="evenodd" d="M67.0182 31.6856C65.0017 31.6856 63.3672 33.3201 63.3672 35.3366C63.3672 37.3526 65.0017 38.9876 67.0182 38.9876C69.0347 38.9876 70.6692 37.3526 70.6692 35.3366C70.6692 33.3201 69.0347 31.6856 67.0182 31.6856Z" fill="indigo" fill-opacity="0.42"/>
<path fill-rule="evenodd" clip-rule="evenodd" d="M67.0182 63.3686C65.0017 63.3686 63.3672 65.0031 63.3672 67.0196C63.3672 69.0361 65.0017 70.6706 67.0182 70.6706C69.0347 70.6706 70.6692 69.0361 70.6692 67.0196C70.6692 65.0031 69.0347 63.3686 67.0182 63.3686Z" fill="indigo" fill-opacity="0.42"/>
<path fill-rule="evenodd" clip-rule="evenodd" d="M67.0182 95.0518C65.0017 95.0518 63.3672 96.6868 63.3672 98.7028C63.3672 100.719 65.0017 102.354 67.0182 102.354C69.0347 102.354 70.6692 100.719 70.6692 98.7028C70.6692 96.6868 69.0347 95.0518 67.0182 95.0518Z" fill="indigo" fill-opacity="0.42"/>
<path fill-rule="evenodd" clip-rule="evenodd" d="M67.0182 126.735C65.0017 126.735 63.3672 128.37 63.3672 130.386C63.3672 132.402 65.0017 134.037 67.0182 134.037C69.0347 134.037 70.6692 132.402 70.6692 130.386C70.6692 128.37 69.0347 126.735 67.0182 126.735Z" fill="indigo" fill-opacity="0.42"/>
<path fill-rule="evenodd" clip-rule="evenodd" d="M67.0182 158.418C65.0017 158.418 63.3672 160.053 63.3672 162.069C63.3672 164.086 65.0017 165.72 67.0182 165.72C69.0347 165.72 70.6692 164.086 70.6692 162.069C70.6692 160.053 69.0347 158.418 67.0182 158.418Z" fill="indigo" fill-opacity="0.42"/>
<path fill-rule="evenodd" clip-rule="evenodd" d="M67.0182 190.101C65.0017 190.101 63.3672 191.736 63.3672 193.752C63.3672 195.769 65.0017 197.403 67.0182 197.403C69.0347 197.403 70.6692 195.769 70.6692 193.752C70.6692 191.736 69.0347 190.101 67.0182 190.101Z" fill="indigo" fill-opacity="0.42"/>
<path fill-rule="evenodd" clip-rule="evenodd" d="M67.0182 221.784C65.0017 221.784 63.3672 223.419 63.3672 225.435C63.3672 227.452 65.0017 229.086 67.0182 229.086C69.0347 229.086 70.6692 227.452 70.6692 225.435C70.6692 223.419 69.0347 221.784 67.0182 221.784Z" fill="indigo" fill-opacity="0.42"/>
<path fill-rule="evenodd" clip-rule="evenodd" d="M67.0182 253.468C65.0017 253.468 63.3672 255.103 63.3672 257.119C63.3672 259.135 65.0017 260.77 67.0182 260.77C69.0347 260.77 70.6692 259.135 70.6692 257.119C70.6692 255.103 69.0347 253.468 67.0182 253.468Z" fill="indigo" fill-opacity="0.42"/>
<path fill-rule="evenodd" clip-rule="evenodd" d="M67.0182 285.151C65.0017 285.151 63.3672 286.786 63.3672 288.802C63.3672 290.818 65.0017 292.453 67.0182 292.453C69.0347 292.453 70.6692 290.818 70.6692 288.802C70.6692 286.786 69.0347 285.151 67.0182 285.151Z" fill="indigo" fill-opacity="0.42"/>
<path fill-rule="evenodd" clip-rule="evenodd" d="M67.0182 316.834C65.0017 316.834 63.3672 318.469 63.3672 320.485C63.3672 322.501 65.0017 324.136 67.0182 324.136C69.0347 324.136 70.6692 322.501 70.6692 320.485C70.6692 318.469 69.0347 316.834 67.0182 316.834Z" fill="indigo" fill-opacity="0.42"/>
<path fill-rule="evenodd" clip-rule="evenodd" d="M67.0182 348.517C65.0017 348.517 63.3672 350.152 63.3672 352.168C63.3672 354.184 65.0017 355.819 67.0182 355.819C69.0347 355.819 70.6692 354.184 70.6692 352.168C70.6692 350.152 69.0347 348.517 67.0182 348.517Z" fill="indigo" fill-opacity="0.42"/>
<path fill-rule="evenodd" clip-rule="evenodd" d="M67.0182 380.2C65.0017 380.2 63.3672 381.835 63.3672 383.851C63.3672 385.868 65.0017 387.502 67.0182 387.502C69.0347 387.502 70.6692 385.868 70.6692 383.851C70.6692 381.835 69.0347 380.2 67.0182 380.2Z" fill="indigo" fill-opacity="0.42"/>
<path fill-rule="evenodd" clip-rule="evenodd" d="M67.0182 411.884C65.0017 411.884 63.3672 413.519 63.3672 415.535C63.3672 417.551 65.0017 419.186 67.0182 419.186C69.0347 419.186 70.6692 417.551 70.6692 415.535C70.6692 413.519 69.0347 411.884 67.0182 411.884Z" fill="indigo" fill-opacity="0.42"/>
<path fill-rule="evenodd" clip-rule="evenodd" d="M67.0182 443.567C65.0017 443.567 63.3672 445.202 63.3672 447.218C63.3672 449.234 65.0017 450.869 67.0182 450.869C69.0347 450.869 70.6692 449.234 70.6692 447.218C70.6692 445.202 69.0347 443.567 67.0182 443.567Z" fill="indigo" fill-opacity="0.42"/>
<path fill-rule="evenodd" clip-rule="evenodd" d="M67.0182 470.25C65.0017 470.25 63.3672 471.885 63.3672 473.901C63.3672 475.917 65.0017 477.552 67.0182 477.552C69.0347 477.552 70.6692 475.917 70.6692 473.901C70.6692 471.885 69.0347 470.25 67.0182 470.25Z" fill="indigo" fill-opacity="0.42"/>
<path fill-rule="evenodd" clip-rule="evenodd" d="M67.0182 496.933C65.0017 496.933 63.3672 498.568 63.3672 500.584C63.3672 502.6 65.0017 504.235 67.0182 504.235C69.0347 504.235 70.6692 502.6 70.6692 500.584C70.6692 498.568 69.0347 496.933 67.0182 496.933Z" fill="indigo" fill-opacity="0.42"/>
<path fill-rule="evenodd" clip-rule="evenodd" d="M98.6998 0.00245C96.6833 0.00245 95.0488 1.63695 95.0488 3.65345C95.0488 5.66945 96.6833 7.30445 98.6998 7.30445C100.716 7.30445 102.351 5.66945 102.351 3.65345C102.351 1.63695 100.716 0.00245 98.6998 0.00245Z" fill="indigo" fill-opacity="0.42"/>
<path fill-rule="evenodd" clip-rule="evenodd" d="M98.6998 31.6856C96.6833 31.6856 95.0488 33.3201 95.0488 35.3366C95.0488 37.3526 96.6833 38.9876 98.6998 38.9876C100.716 38.9876 102.351 37.3526 102.351 35.3366C102.351 33.3201 100.716 31.6856 98.6998 31.6856Z" fill="indigo" fill-opacity="0.42"/>
<path fill-rule="evenodd" clip-rule="evenodd" d="M98.6998 63.3686C96.6833 63.3686 95.0488 65.0031 95.0488 67.0196C95.0488 69.0361 96.6833 70.6706 98.6998 70.6706C100.716 70.6706 102.351 69.0361 102.351 67.0196C102.351 65.0031 100.716 63.3686 98.6998 63.3686Z" fill="indigo" fill-opacity="0.42"/>
<path fill-rule="evenodd" clip-rule="evenodd" d="M98.6998 95.0518C96.6833 95.0518 95.0488 96.6868 95.0488 98.7028C95.0488 100.719 96.6833 102.354 98.6998 102.354C100.716 102.354 102.351 100.719 102.351 98.7028C102.351 96.6868 100.716 95.0518 98.6998 95.0518Z" fill="indigo" fill-opacity="0.42"/>
<path fill-rule="evenodd" clip-rule="evenodd" d="M98.6998 126.735C96.6833 126.735 95.0488 128.37 95.0488 130.386C95.0488 132.402 96.6833 134.037 98.6998 134.037C100.716 134.037 102.351 132.402 102.351 130.386C102.351 128.37 100.716 126.735 98.6998 126.735Z" fill="indigo" fill-opacity="0.42"/>
<path fill-rule="evenodd" clip-rule="evenodd" d="M98.6998 158.418C96.6833 158.418 95.0488 160.053 95.0488 162.069C95.0488 164.086 96.6833 165.72 98.6998 165.72C100.716 165.72 102.351 164.086 102.351 162.069C102.351 160.053 100.716 158.418 98.6998 158.418Z" fill="indigo" fill-opacity="0.42"/>
<path fill-rule="evenodd" clip-rule="evenodd" d="M98.6998 190.101C96.6833 190.101 95.0488 191.736 95.0488 193.752C95.0488 195.769 96.6833 197.403 98.6998 197.403C100.716 197.403 102.351 195.769 102.351 193.752C102.351 191.736 100.716 190.101 98.6998 190.101Z" fill="indigo" fill-opacity="0.42"/>
<path fill-rule="evenodd" clip-rule="evenodd" d="M98.6998 221.784C96.6833 221.784 95.0488 223.419 95.0488 225.435C95.0488 227.452 96.6833 229.086 98.6998 229.086C100.716 229.086 102.351 227.452 102.351 225.435C102.351 223.419 100.716 221.784 98.6998 221.784Z" fill="indigo" fill-opacity="0.42"/>
<path fill-rule="evenodd" clip-rule="evenodd" d="M98.6998 253.468C96.6833 253.468 95.0488 255.103 95.0488 257.119C95.0488 259.135 96.6833 260.77 98.6998 260.77C100.716 260.77 102.351 259.135 102.351 257.119C102.351 255.103 100.716 253.468 98.6998 253.468Z" fill="indigo" fill-opacity="0.42"/>
<path fill-rule="evenodd" clip-rule="evenodd" d="M98.6998 285.151C96.6833 285.151 95.0488 286.786 95.0488 288.802C95.0488 290.818 96.6833 292.453 98.6998 292.453C100.716 292.453 102.351 290.818 102.351 288.802C102.351 286.786 100.716 285.151 98.6998 285.151Z" fill="indigo" fill-opacity="0.42"/>
<path fill-rule="evenodd" clip-rule="evenodd" d="M98.6998 316.834C96.6833 316.834 95.0488 318.469 95.0488 320.485C95.0488 322.501 96.6833 324.136 98.6998 324.136C100.716 324.136 102.351 322.501 102.351 320.485C102.351 318.469 100.716 316.834 98.6998 316.834Z" fill="indigo" fill-opacity="0.42"/>
<path fill-rule="evenodd" clip-rule="evenodd" d="M98.6998 348.517C96.6833 348.517 95.0488 350.152 95.0488 352.168C95.0488 354.184 96.6833 355.819 98.6998 355.819C100.716 355.819 102.351 354.184 102.351 352.168C102.351 350.152 100.716 348.517 98.6998 348.517Z" fill="indigo" fill-opacity="0.42"/>
<path fill-rule="evenodd" clip-rule="evenodd" d="M98.6998 380.2C96.6833 380.2 95.0488 381.835 95.0488 383.851C95.0488 385.868 96.6833 387.502 98.6998 387.502C100.716 387.502 102.351 385.868 102.351 383.851C102.351 381.835 100.716 380.2 98.6998 380.2Z" fill="indigo" fill-opacity="0.42"/>
<path fill-rule="evenodd" clip-rule="evenodd" d="M98.6998 411.884C96.6833 411.884 95.0488 413.519 95.0488 415.535C95.0488 417.551 96.6833 419.186 98.6998 419.186C100.716 419.186 102.351 417.551 102.351 415.535C102.351 413.519 100.716 411.884 98.6998 411.884Z" fill="indigo" fill-opacity="0.42"/>
<path fill-rule="evenodd" clip-rule="evenodd" d="M98.6998 443.567C96.6833 443.567 95.0488 445.202 95.0488 447.218C95.0488 449.234 96.6833 450.869 98.6998 450.869C100.716 450.869 102.351 449.234 102.351 447.218C102.351 445.202 100.716 443.567 98.6998 443.567Z" fill="indigo" fill-opacity="0.42"/>
<path fill-rule="evenodd" clip-rule="evenodd" d="M98.6998 470.25C96.6833 470.25 95.0488 471.885 95.0488 473.901C95.0488 475.917 96.6833 477.552 98.6998 477.552C100.716 477.552 102.351 475.917 102.351 473.901C102.351 471.885 100.716 470.25 98.6998 470.25Z" fill="indigo" fill-opacity="0.42"/>
<path fill-rule="evenodd" clip-rule="evenodd" d="M98.6998 496.933C96.6833 496.933 95.0488 498.568 95.0488 500.584C95.0488 502.6 96.6833 504.235 98.6998 504.235C100.716 504.235 102.351 502.6 102.351 500.584C102.351 498.568 100.716 496.933 98.6998 496.933Z" fill="indigo" fill-opacity="0.42"/>
<path fill-rule="evenodd" clip-rule="evenodd" d="M130.383 0.00245C128.367 0.00245 126.732 1.63695 126.732 3.65345C126.732 5.66945 128.367 7.30445 130.383 7.30445C132.4 7.30445 134.034 5.66945 134.034 3.65345C134.034 1.63695 132.4 0.00245 130.383 0.00245Z" fill="indigo" fill-opacity="0.42"/>
<path fill-rule="evenodd" clip-rule="evenodd" d="M130.383 31.6856C128.367 31.6856 126.732 33.3201 126.732 35.3366C126.732 37.3526 128.367 38.9876 130.383 38.9876C132.4 38.9876 134.034 37.3526 134.034 35.3366C134.034 33.3201 132.4 31.6856 130.383 31.6856Z" fill="indigo" fill-opacity="0.42"/>
<path fill-rule="evenodd" clip-rule="evenodd" d="M130.383 63.3686C128.367 63.3686 126.732 65.0031 126.732 67.0196C126.732 69.0361 128.367 70.6706 130.383 70.6706C132.4 70.6706 134.034 69.0361 134.034 67.0196C134.034 65.0031 132.4 63.3686 130.383 63.3686Z" fill="indigo" fill-opacity="0.42"/>

</svg>
