<svg width="25" height="21" viewBox="0 0 25 21" fill="none" xmlns="http://www.w3.org/2000/svg">
<path fill-rule="evenodd" clip-rule="evenodd" d="M6.94296 3.52287H21.1882C22.7606 3.52287 24.0396 4.80201 24.0396 6.37456V17.8441C24.0396 19.4166 22.7458 20.6339 21.1747 20.6339H6.94296C5.37192 20.6339 4.07812 19.3548 4.07812 17.7822V6.37456C4.07812 4.80201 5.37192 3.52287 6.94296 3.52287ZM19.7358 8.52253C19.7406 7.34297 18.7955 6.3822 17.6233 6.37502V6.37456C16.4461 6.37224 15.4894 7.32939 15.4848 8.51391C15.4848 9.69348 16.4338 10.6504 17.606 10.6527C18.7783 10.6551 19.7311 9.7021 19.7358 8.52253ZM6.92402 19.2083C6.1385 19.2083 5.54428 18.569 5.54428 17.7827V14.7683L9.72417 11.0118C10.572 10.2613 11.8521 10.2985 12.6555 11.0968L15.55 13.9848L10.3286 19.2079L6.92402 19.2083ZM22.1451 18.791C22.4112 18.5236 22.5608 18.1607 22.561 17.7822V15.5467L20.5057 13.7914C19.7096 13.123 18.5516 13.1261 17.7591 13.7988L12.3492 19.2079H21.1419C21.518 19.2084 21.8789 19.0584 22.1451 18.791Z" fill="#673AB7"/>
<path d="M18.1318 0H3.09358C1.43251 0 0.0859375 1.359 0.0859375 3.03541V15.1771C0.0870688 16.5611 1.01425 17.7698 2.34167 18.1176V5.69139C2.34167 3.80543 3.85656 2.27656 5.72528 2.27656H21.0455C20.7009 0.936886 19.5032 0.00114177 18.1318 0Z" fill="#673AB7"/>
</svg>
