<svg width="33" height="25" viewBox="0 0 33 25" fill="none" xmlns="http://www.w3.org/2000/svg">
<path d="M22.4126 12.0849C21.0401 12.0849 19.7129 11.4549 18.6741 10.3116C17.664 9.19641 17.0472 7.70926 16.9383 6.12534C16.8222 4.43574 17.3235 2.88202 18.3496 1.74967C19.3757 0.617317 20.8104 0.00653458 22.4126 0.00653458C24.0035 0.00653458 25.4422 0.628298 26.4649 1.7579C27.4977 2.89849 28.0004 4.44947 27.8843 6.12466C27.7728 7.71063 27.1566 9.1971 26.1485 10.3109C25.1124 11.4549 23.7859 12.0849 22.4126 12.0849Z" fill="#673AB7"/>
<path d="M30.9991 23.66H13.3203C12.7442 23.6631 12.1993 23.4014 11.8451 22.9515C11.4695 22.464 11.3396 21.8332 11.4924 21.239C12.057 18.9939 13.4557 17.132 15.5371 15.855C17.3844 14.7222 19.736 14.098 22.1594 14.098C24.6303 14.098 26.9202 14.6956 28.7783 15.8278C30.8643 17.0981 32.2651 18.9707 32.827 21.243C32.978 21.8376 32.8466 22.468 32.4703 22.9548C32.1164 23.4026 31.5732 23.663 30.9991 23.66Z" fill="#673AB7"/>
<path d="M9.43824 12.0849C7.15327 12.0849 5.14426 9.85968 4.9579 7.12504C4.8657 5.72405 5.28256 4.42848 6.12668 3.47839C6.96171 2.53783 8.13959 2.0196 9.43824 2.0196C10.7369 2.0196 11.9057 2.54055 12.7452 3.48655C13.5959 4.44412 14.0114 5.73697 13.914 7.1264C13.7277 9.86036 11.7193 12.0849 9.43824 12.0849Z" fill="#673AB7"/>
<path d="M13.8142 14.45C12.6639 13.8798 11.1708 13.5947 9.52083 13.5947C7.59421 13.5947 5.72318 14.1039 4.25173 15.0282C2.58343 16.0777 1.46121 17.6059 1.008 19.4511C0.873636 19.9888 0.989013 20.5592 1.32126 20.9999C1.63663 21.4103 2.1219 21.6494 2.6351 21.647H9.89426C10.1471 21.647 10.3637 21.4636 10.4089 21.2114C10.4161 21.1696 10.4253 21.1279 10.4358 21.0867C10.9903 18.8285 12.2898 16.9204 14.2099 15.5294C14.3533 15.4245 14.4348 15.2533 14.4265 15.0742C14.4182 14.8951 14.3212 14.7324 14.1687 14.6416C14.066 14.5806 13.9483 14.5163 13.8142 14.45Z" fill="#673AB7"/>
</svg>
