<svg width="22" height="20" viewBox="0 0 22 20" fill="none" xmlns="http://www.w3.org/2000/svg">
<path d="M11.2298 19.6339C10.9062 19.6335 10.5902 19.5343 10.3229 19.3492C6.36349 16.6224 4.64903 14.7526 3.70338 13.5837C1.68815 11.0919 0.723354 8.53372 0.750559 5.7634C0.782299 2.58876 3.29278 0.00653458 6.34686 0.00653458C8.56765 0.00653458 10.1058 1.27567 11.0015 2.33269C11.059 2.39975 11.1422 2.43827 11.2298 2.43827C11.3173 2.43827 11.4006 2.39975 11.458 2.33269C12.3538 1.27465 13.8919 0.00653458 16.1127 0.00653458C19.1668 0.00653458 21.6772 2.58876 21.709 5.76391C21.7362 8.53474 20.7704 11.093 18.7562 13.5842C17.8105 14.7532 16.0961 16.6229 12.1366 19.3498C11.8693 19.5347 11.5533 19.6337 11.2298 19.6339Z" fill="#673AB7"/>
</svg>
